<svg width="99" height="44" viewBox="0 0 99 44" fill="none" xmlns="http://www.w3.org/2000/svg">
<g clip-path="url(#clip0_1_2774)">
<path d="M14.8062 36.6658C14.9419 36.6658 15.077 36.6638 15.2118 36.6603V30.2606C15.2118 30.0897 15.0005 30.0042 14.8769 30.125L9.2478 35.6263C10.9669 36.2966 12.8424 36.6658 14.8062 36.6658Z" fill="white"/>
<path d="M22.7007 9.5241C20.9151 8.44253 18.8797 7.71859 16.6991 7.45005C16.0789 7.37368 15.4477 7.33211 14.8063 7.33211C6.51789 7.33211 -0.201172 13.8986 -0.201172 21.9988C-0.201172 24.8296 0.62029 27.4726 2.04174 29.7139L16.6991 15.3894L22.7007 9.5241Z" fill="white"/>
<path d="M17.5103 36.4284C18.9951 36.1644 20.4036 35.6867 21.7015 35.0293V23.9188C21.7015 23.7479 21.4902 23.6624 21.3666 23.7832L17.5103 27.552V36.4284Z" fill="white"/>
<path d="M24.5771 10.8666L16.699 18.5658L3.41577 31.5474C4.46001 32.736 5.6955 33.7592 7.07585 34.5715L19.8059 22.1306L23.6897 18.362C23.8139 18.2414 24.0253 18.3282 24.0241 18.4993L23.9999 22.1306L23.9999 33.5906C25.668 32.3252 27.0553 30.7238 28.056 28.89V22.1306V15.1069V8.39526C28.056 8.05258 27.6321 7.88097 27.3841 8.12328L24.5771 10.8666Z" fill="white"/>
<path d="M42.7565 11.1034L47.059 22.8025H44.5248L40.8486 12.3587H41.8656L38.1852 22.8025H35.6681L39.9748 11.1034H42.7565ZM38.1015 18.7088H44.4343L45.0532 20.5694H37.4914L38.1015 18.7088Z" fill="white"/>
<path d="M56.5805 12.9251L51.2123 20.8242H56.5805V22.8016H48.4337V20.9916L53.7722 13.0883H48.4337V11.1151H56.5805V12.9251Z" fill="white"/>
<path d="M58.7079 11.1151H61.1142V22.8016H58.7079V11.1151Z" fill="white"/>
<path d="M63.5551 11.1151H66.2877L70.5488 20.8349L69.6113 20.9171L73.8767 11.1151H76.5921V22.8016H74.1901V13.0469L75.0578 13.1716L70.9919 22.8016H69.1725L65.0936 13.1716L65.9613 13.0469V22.8016H63.5551V11.1151Z" fill="white"/>
<path d="M79.0085 11.1151H81.4105V18.3494C81.4105 19.9642 82.2998 20.7932 83.8221 20.7932C85.3575 20.7932 86.2594 19.9642 86.2594 18.3494V11.1151H88.6614V18.3242C88.6614 21.4183 86.4061 22.9187 83.7882 22.9187C81.1574 22.9187 79.0085 21.4183 79.0085 18.3242V11.1151Z" fill="white"/>
<path d="M90.4281 11.1151H99.2011V13.0125H96.02V22.8016H93.6138V13.0125H90.4281V11.1151Z" fill="white"/>
<path d="M47.5382 25.9215H52.7734V27.0538H50.8751V32.8951H49.4393V27.0538H47.5382V25.9215Z" fill="white"/>
<path d="M58.5357 25.9215C60.2546 25.9215 61.1075 26.8875 61.1075 28.0578C61.1075 29.1079 60.378 30.1773 58.5357 30.1773H57.2931V32.8951H55.8573V25.9215H58.5357ZM58.4856 27.0782H57.2931V29.1287H58.4856C59.2773 29.1287 59.641 28.7152 59.641 28.0922C59.641 27.4763 59.2773 27.0782 58.4856 27.0782ZM59.3236 29.7979L61.1949 32.8951H59.5342L57.7495 29.7979H59.3236Z" fill="white"/>
<path d="M68.2406 25.9139L70.808 32.8951H69.2957L67.1021 26.6631H67.7089L65.5127 32.8951H64.0108L66.5807 25.9139H68.2406ZM65.4628 30.4523H69.2417L69.611 31.5626H65.0987L65.4628 30.4523Z" fill="white"/>
<path d="M80.0731 29.4223C80.0731 31.5303 78.591 32.8951 76.3043 32.8951H73.8139V25.9215H76.3043C78.591 25.9215 80.0731 27.3018 80.0731 29.4223ZM76.2542 31.709C77.7649 31.709 78.6066 30.8657 78.6066 29.4223C78.6066 27.9714 77.7649 27.0978 76.2542 27.0978H75.2497V31.709H76.2542Z" fill="white"/>
<path d="M87.3309 27.0486H84.6216V28.7997H87.0243V29.9097H84.6216V31.7604H87.3309V32.8951H83.1858V25.9139H87.3309V27.0486Z" fill="white"/>
</g>
<defs>
<clipPath id="clip0_1_2774">
<rect width="99" height="44" fill="white"/>
</clipPath>
</defs>
</svg>
