<svg width="52" height="52" viewBox="0 0 52 52" fill="none" xmlns="http://www.w3.org/2000/svg">
<g clip-path="url(#clip0_1_2834)">
<path d="M15.1667 30.3333C19.955 30.3333 23.8333 26.455 23.8333 21.6667C23.8333 16.8783 19.955 13 15.1667 13C10.3783 13 6.5 16.8783 6.5 21.6667C6.5 26.455 10.3783 30.3333 15.1667 30.3333ZM15.1667 17.3333C17.55 17.3333 19.5 19.2833 19.5 21.6667C19.5 24.05 17.55 26 15.1667 26C12.7833 26 10.8333 24.05 10.8333 21.6667C10.8333 19.2833 12.7833 17.3333 15.1667 17.3333ZM30.3333 49.8333C30.3333 51.025 29.3583 52 28.1667 52C26.975 52 26 51.025 26 49.8333C26 43.8533 21.1467 39 15.1667 39C9.18667 39 4.33333 43.8533 4.33333 49.8333C4.33333 51.025 3.35833 52 2.16667 52C0.975 52 0 51.025 0 49.8333C0 41.47 6.80333 34.6667 15.1667 34.6667C23.53 34.6667 30.3333 41.47 30.3333 49.8333ZM52 10.8333V28.1667C52 34.1467 47.1467 39 41.1667 39H32.5C31.3083 39 30.3333 38.025 30.3333 36.8333C30.3333 35.6417 31.3083 34.6667 32.5 34.6667H41.1667C44.7417 34.6667 47.6667 31.7417 47.6667 28.1667V10.8333C47.6667 7.25833 44.7417 4.33333 41.1667 4.33333H20.4967C18.1783 4.33333 16.0333 5.59 14.8633 7.58333C14.2567 8.62333 12.935 8.97 11.895 8.385C11.6481 8.24206 11.4319 8.05168 11.259 7.82483C11.086 7.59797 10.9596 7.33913 10.8871 7.06321C10.8146 6.78729 10.7974 6.49975 10.8365 6.21716C10.8756 5.93457 10.9703 5.66251 11.115 5.41667C13.065 2.08 16.6617 0 20.4967 0H41.1667C47.1467 0 52 4.85333 52 10.8333ZM29.6183 23.66L35.945 17.3333H32.5C31.3083 17.3333 30.3333 16.3583 30.3333 15.1667C30.3333 13.975 31.3083 13 32.5 13H39C41.3833 13 43.3333 14.95 43.3333 17.3333V23.8333C43.3333 25.025 42.3583 26 41.1667 26C39.975 26 39 25.025 39 23.8333V20.3883L32.6733 26.715C32.0138 27.3748 31.1905 27.847 30.288 28.0831C29.3855 28.3192 28.4364 28.3106 27.5383 28.0583C27.2651 27.9816 27.0098 27.8517 26.7868 27.6762C26.5638 27.5008 26.3775 27.2831 26.2387 27.0356C26.0999 26.7881 26.0112 26.5157 25.9776 26.2339C25.9441 25.9521 25.9664 25.6665 26.0433 25.3933C26.3683 24.245 27.56 23.5733 28.73 23.8983C28.99 23.9633 29.3367 23.9417 29.6183 23.66Z" fill="url(#paint0_linear_1_2834)"/>
</g>
<defs>
<linearGradient id="paint0_linear_1_2834" x1="26" y1="0" x2="26" y2="52" gradientUnits="userSpaceOnUse">
<stop stop-color="#72FCC3"/>
<stop offset="1" stop-color="#62D982"/>
</linearGradient>
<clipPath id="clip0_1_2834">
<rect width="52" height="52" fill="white"/>
</clipPath>
</defs>
</svg>
