<svg width="42" height="52" viewBox="0 0 42 52" fill="none" xmlns="http://www.w3.org/2000/svg">
<path d="M13.4167 20.5825C13.4167 21.7764 13.694 22.9074 14.188 23.9127C13.0929 25.3153 12.4601 27.0232 12.3767 28.8007C10.2617 26.5884 9.08202 23.6453 9.08337 20.5847C9.08591 18.8071 9.48539 17.0524 10.2527 15.4489C11.0199 13.8454 12.1356 12.4334 13.5182 11.3162C14.9008 10.1989 16.5155 9.40449 18.2444 8.99094C19.9733 8.5774 21.7727 8.55516 23.5112 8.92586C28.0222 9.85319 31.6774 13.4867 32.6394 17.9912C32.9297 19.3519 32.9839 20.6844 32.8365 21.9584C32.7678 22.481 32.5101 22.9603 32.1121 23.306C31.7142 23.6517 31.2035 23.8397 30.6764 23.8347H30.5789C29.2962 23.8347 28.3949 22.6929 28.5357 21.4189C28.7471 19.5834 28.2785 17.7341 27.2185 16.2209C26.1584 14.7077 24.5805 13.6355 22.7832 13.2072C21.6674 12.9399 20.5055 12.9288 19.3848 13.1746C18.264 13.4205 17.2135 13.917 16.312 14.6269C15.4106 15.3367 14.6816 16.2415 14.1798 17.2734C13.678 18.3052 13.4163 19.4373 13.4145 20.5847L13.4167 20.5825ZM4.98837 17.7767C5.58607 14.3042 7.30711 11.124 9.8872 8.72436C13.2 5.61952 17.5377 4.08552 22.0855 4.36719C30.6504 4.92186 37.3475 12.425 37.2479 21.408C37.2067 25.1694 34.0564 28.1637 30.2972 28.1637H25.0842C24.7954 27.1617 24.154 26.2979 23.2782 25.7318C22.4024 25.1657 21.3515 24.9354 20.3192 25.0835C19.287 25.2316 18.3432 25.7481 17.6619 26.5376C16.9806 27.3271 16.6079 28.3364 16.6125 29.3792C16.6125 30.5285 17.0691 31.6307 17.8817 32.4433C18.6944 33.256 19.7966 33.7125 20.9459 33.7125C22.1115 33.7125 23.1667 33.2467 23.9445 32.497H30.2972C36.405 32.497 41.4945 27.6329 41.5812 21.5272C41.7415 10.215 33.2439 0.746689 22.365 0.044689C19.5495 -0.153936 16.7235 0.234189 14.0658 1.18449C11.408 2.13479 8.9766 3.62656 6.92537 5.56536C3.69192 8.60581 1.52302 12.6063 0.739535 16.975C0.687162 17.2861 0.703365 17.6049 0.78701 17.9091C0.870656 18.2133 1.01973 18.4956 1.2238 18.7362C1.42788 18.9768 1.68204 19.1699 1.96852 19.3021C2.25499 19.4343 2.56688 19.5023 2.88237 19.5014C3.90504 19.5014 4.8172 18.7885 4.98837 17.7789V17.7767ZM21 36.8325C12.9942 36.8325 6.06737 41.7985 3.7642 49.1869C3.67929 49.4586 3.64876 49.7444 3.67435 50.0279C3.69995 50.3114 3.78116 50.5871 3.91336 50.8393C4.04556 51.0914 4.22615 51.315 4.44481 51.4973C4.66347 51.6796 4.91591 51.817 5.1877 51.9017C5.7362 52.069 6.32852 52.0133 6.83629 51.7469C7.34406 51.4804 7.72637 51.0246 7.90037 50.4782C9.60987 44.9965 14.994 41.1659 20.9979 41.1659C27.0017 41.1659 32.388 44.9965 34.0954 50.4782C34.2666 51.027 34.6488 51.4852 35.158 51.7522C35.6671 52.0192 36.2614 52.0729 36.8102 51.9017C37.359 51.7304 37.8173 51.3482 38.0842 50.8391C38.3512 50.33 38.4049 49.7356 38.2337 49.1869C35.9305 41.7985 29.0037 36.8325 20.9979 36.8325H21Z" fill="url(#paint0_linear_1_2843)"/>
<defs>
<linearGradient id="paint0_linear_1_2843" x1="21.1465" y1="-0.00585938" x2="21.1465" y2="52.0001" gradientUnits="userSpaceOnUse">
<stop stop-color="#72FCC3"/>
<stop offset="1" stop-color="#62D982"/>
</linearGradient>
</defs>
</svg>
