<svg width="32" height="32" viewBox="0 0 32 32" fill="none" xmlns="http://www.w3.org/2000/svg">
<path d="M4 15.9987H0V15.3321C0 14.8016 0.210714 14.2929 0.585786 13.9178C0.960859 13.5428 1.46957 13.3321 2 13.3321H4.468C4.16325 13.9549 4.00326 14.6386 4 15.3321V15.9987ZM16.8653 13.3321C17.1573 13.9401 17.3333 14.6134 17.3333 15.3321V15.9987H21.3333V15.3321C21.3333 14.8016 21.1226 14.2929 20.7475 13.9178C20.3725 13.5428 19.8638 13.3321 19.3333 13.3321H16.8653ZM8.45467 6.46806L8.856 6.7694L10.6747 5.36273L12.4867 6.76406L12.9027 6.4734L12.1667 4.23473L14 3.1734V2.66406H11.5973L10.944 0.164062H10.4053L9.75067 2.66406H7.33467V3.17606L9.18 4.20273L8.456 6.46673L8.45467 6.46806ZM16.2307 7.0414L16.552 7.28273L18.0067 6.1574L19.456 7.27873L19.7893 7.04673L19.2 5.25606L20.6667 4.40806V4.0014H18.744L18.2213 2.0014H17.7907L17.2667 4.0014H15.3333V4.41073L16.8093 5.23206L16.2293 7.04406L16.2307 7.0414ZM1.564 7.0414L1.88533 7.28273L3.34 6.1574L4.78933 7.27873L5.12267 7.04673L4.53333 5.25606L6 4.40806V4.0014H4.07733L3.55467 2.0014H3.124L2.6 4.0014H0.666667V4.41073L2.14267 5.23206L1.56267 7.04406L1.564 7.0414ZM3.33333 7.99873C2.80272 7.99891 2.29392 8.20986 1.91884 8.58518C1.54377 8.9605 1.33316 9.46945 1.33333 10.0001C1.33351 10.5307 1.54446 11.0395 1.91979 11.4146C2.29511 11.7896 2.80406 12.0002 3.33467 12.0001C3.86528 11.9999 4.37408 11.7889 4.74916 11.4136C5.12423 11.0383 5.33484 10.5293 5.33467 9.99873C5.33449 9.46812 5.12354 8.95931 4.74821 8.58424C4.37289 8.20917 3.86394 7.99855 3.33333 7.99873ZM14.6667 15.3321C14.6667 14.8016 14.456 14.2929 14.0809 13.9178C13.7058 13.5428 13.1971 13.3321 12.6667 13.3321H8.66667C8.13623 13.3321 7.62753 13.5428 7.25245 13.9178C6.87738 14.2929 6.66667 14.8016 6.66667 15.3321V15.9987H14.6667V15.3321ZM10.6667 7.99873C10.1361 7.99891 9.62725 8.20986 9.25218 8.58518C8.8771 8.9605 8.66649 9.46945 8.66667 10.0001C8.66684 10.5307 8.8778 11.0395 9.25312 11.4146C9.62844 11.7896 10.1374 12.0002 10.668 12.0001C10.9307 12 11.1909 11.9481 11.4336 11.8475C11.6763 11.7469 11.8968 11.5995 12.0825 11.4136C12.2682 11.2278 12.4155 11.0072 12.516 10.7644C12.6164 10.5216 12.6681 10.2615 12.668 9.99873C12.6679 9.736 12.6161 9.47586 12.5155 9.23316C12.4148 8.99046 12.2674 8.76996 12.0815 8.58424C11.8957 8.39852 11.6751 8.25123 11.4323 8.15077C11.1896 8.0503 10.9294 7.99864 10.6667 7.99873ZM20 9.99873C19.9998 9.46812 19.7889 8.95931 19.4135 8.58424C19.0382 8.20917 18.5293 7.99855 17.9987 7.99873C17.4681 7.99891 16.9592 8.20986 16.5842 8.58518C16.2091 8.9605 15.9985 9.46945 15.9987 10.0001C15.9988 10.5307 16.2098 11.0395 16.5851 11.4146C16.9604 11.7896 17.4694 12.0002 18 12.0001C18.5306 11.9999 19.0394 11.7889 19.4145 11.4136C19.7896 11.0383 20.0002 10.5293 20 9.99873ZM30.6893 15.7121C29.1293 14.2174 26.436 14.3534 25.0173 15.9774L20.7187 20.7014C20.3491 20.0824 19.8257 19.5696 19.1993 19.2129C18.5729 18.8561 17.8649 18.6675 17.144 18.6654H4C1.79467 18.6654 0 20.4601 0 22.6654V31.9987H2.66667V22.6654C2.66667 22.3118 2.80714 21.9726 3.05719 21.7226C3.30724 21.4725 3.64638 21.3321 4 21.3321H17.1427C17.9827 21.3321 18.6667 22.0161 18.6667 22.8561C18.6667 23.6081 18.1053 24.2574 17.36 24.3627L10.4787 25.3454L10.856 27.9854L17.7373 27.0027C18.4894 26.8914 19.1973 26.5783 19.7856 26.0968C20.374 25.6153 20.8208 24.9833 21.0787 24.2681L26.9893 17.7721C27.4653 17.2254 28.3667 17.1881 28.8933 17.6827C29.4373 18.1787 29.48 19.0281 28.9907 19.5774L17.924 31.9987H21.4947L30.9813 21.3521C31.6819 20.5617 32.0438 19.5277 31.9892 18.473C31.9346 17.4182 31.4678 16.4272 30.6893 15.7134V15.7121Z" fill="url(#paint0_linear_1_2904)"/>
<defs>
<linearGradient id="paint0_linear_1_2904" x1="15.9973" y1="0.164062" x2="15.9973" y2="31.9987" gradientUnits="userSpaceOnUse">
<stop stop-color="#72FCC3"/>
<stop offset="1" stop-color="#62D982"/>
</linearGradient>
</defs>
</svg>
