<svg width="32" height="32" viewBox="0 0 32 32" fill="none" xmlns="http://www.w3.org/2000/svg">
<path d="M16.0079 16.4133C20.8226 16.3853 23.4146 13.7853 23.5039 8.85194C23.4212 4.10527 20.6892 1.3666 15.9919 1.33594C11.2439 1.36527 8.4959 4.22927 8.4959 8.85194C8.4959 13.6133 11.2452 16.3866 16.0079 16.4146V16.4133ZM15.9919 4.00127C19.2412 4.0226 20.7799 5.5786 20.8372 8.84927C20.7746 12.2613 19.3266 13.7253 16.0079 13.7453C12.6812 13.7253 11.2319 12.2679 11.1626 8.87327C11.2292 5.52527 12.7239 4.02127 15.9919 4.00127ZM15.9919 18.2159C8.8879 18.2613 5.06523 22.0973 4.93723 29.3119C4.93405 29.487 4.9654 29.6611 5.02948 29.824C5.09357 29.987 5.18913 30.1358 5.31072 30.2618C5.43231 30.3879 5.57754 30.4887 5.73811 30.5587C5.89869 30.6286 6.07146 30.6661 6.24656 30.6693C6.93456 30.6439 7.58923 30.0959 7.6039 29.3599C7.70523 23.6119 10.3772 20.9186 15.9919 20.8839C21.5492 20.9199 24.2986 23.6919 24.3972 29.3586C24.4106 30.0866 25.0052 30.6693 25.7306 30.6693H25.7546C26.4906 30.6559 27.0772 30.0493 27.0652 29.3133C26.9426 22.2026 23.0172 18.2626 15.9932 18.2173L15.9919 18.2159Z" fill="url(#paint0_linear_1_2884)"/>
<defs>
<linearGradient id="paint0_linear_1_2884" x1="16.0012" y1="1.33594" x2="16.0012" y2="30.6693" gradientUnits="userSpaceOnUse">
<stop stop-color="#72FCC3"/>
<stop offset="1" stop-color="#62D982"/>
</linearGradient>
</defs>
</svg>
