<svg width="32" height="32" viewBox="0 0 32 32" fill="none" xmlns="http://www.w3.org/2000/svg">
<g clip-path="url(#clip0_1_2894)">
<path d="M30.6667 24H26.6693C25.9316 23.9991 25.2021 23.8456 24.5265 23.5492C23.851 23.2527 23.2441 22.8197 22.744 22.2773L19.0053 18.2147C18.7708 17.9523 18.6499 17.6075 18.6691 17.2561C18.6884 16.9047 18.8462 16.5752 19.108 16.34C19.5987 15.9027 20.3453 15.8907 20.7813 16.252L24.4093 19.74C24.5356 19.8613 24.6845 19.9566 24.8476 20.0204C25.0106 20.0842 25.1847 20.1153 25.3597 20.1118C25.5348 20.1083 25.7075 20.0704 25.8679 20.0002C26.0283 19.93 26.1733 19.8289 26.2947 19.7027C26.416 19.5764 26.5113 19.4275 26.5751 19.2644C26.6389 19.1014 26.6699 18.9273 26.6665 18.7523C26.663 18.5772 26.6251 18.4045 26.5549 18.2441C26.4847 18.0837 26.3836 17.9387 26.2573 17.8173L22.5627 14.2693C21.8441 13.6685 20.9367 13.3404 20 13.3427V12.0013C20 11.5453 19.9533 11.0987 19.8653 10.668H23.7693C25.3253 10.668 26.8413 11.2173 28.0373 12.2133L29.812 13.692C30.0836 13.9185 30.434 14.0278 30.7862 13.9959C31.1384 13.9641 31.4635 13.7936 31.69 13.522C31.9165 13.2504 32.0258 12.9 31.994 12.5478C31.9621 12.1956 31.7916 11.8705 31.52 11.644L29.7453 10.164C28.067 8.7682 25.9535 8.00317 23.7707 8.00133H18.664C18.0439 7.17344 17.2394 6.50141 16.3143 6.03854C15.3892 5.57566 14.3691 5.33467 13.3347 5.33467H10.668C10.6667 2.392 8.27467 0 5.33333 0C2.392 0 0 2.392 0 5.33333V26.6667C0 29.608 2.392 32 5.33333 32C8.27467 32 10.6667 29.608 10.6667 26.6667H13.3333C14.6351 26.6652 15.9081 26.2833 16.9956 25.5679C18.0832 24.8525 18.9379 23.8348 19.4547 22.64L20.7827 24.0827C21.5327 24.8964 22.443 25.546 23.4563 25.9907C24.4696 26.4354 25.5641 26.6656 26.6707 26.6667H30.668C31.0216 26.6667 31.3608 26.5262 31.6108 26.2761C31.8609 26.0261 32.0013 25.687 32.0013 25.3333C32.0013 24.9797 31.8609 24.6406 31.6108 24.3905C31.3608 24.1405 31.0203 24 30.6667 24ZM5.33333 2.66667C6.804 2.66667 8 3.86267 8 5.33333H2.66667C2.66667 3.86267 3.86267 2.66667 5.33333 2.66667ZM2.66667 13.3333C4.13733 13.3333 5.33333 14.5293 5.33333 16C5.33333 17.4707 4.13733 18.6667 2.66667 18.6667V13.3333ZM5.33333 29.3333C3.86267 29.3333 2.66667 28.1373 2.66667 26.6667H8C8 28.1373 6.804 29.3333 5.33333 29.3333ZM13.3333 24H2.66667V21.3333C5.608 21.3333 8 18.9413 8 16C8 13.0587 5.608 10.6667 2.66667 10.6667V8H13.3333C15.5387 8 17.3333 9.79467 17.3333 12V14.3493L17.3293 14.3533C16.5401 15.0638 16.0653 16.0586 16.0096 17.1191C15.9538 18.1795 16.3216 19.2187 17.032 20.008L17.32 20.3213C17.2384 21.323 16.7831 22.2574 16.0446 22.9391C15.3061 23.6208 14.3384 23.9986 13.3333 24ZM14.6667 12.6667C14.6666 12.9294 14.6147 13.1895 14.5141 13.4322C14.4135 13.6749 14.2661 13.8954 14.0802 14.0812C13.8944 14.2669 13.6738 14.4142 13.431 14.5146C13.1882 14.6151 12.9281 14.6668 12.6653 14.6667C12.4026 14.6666 12.1425 14.6147 11.8998 14.5141C11.6571 14.4135 11.4366 14.2661 11.2508 14.0802C10.8758 13.7049 10.6652 13.1959 10.6653 12.6653C10.6655 12.1347 10.8765 11.6259 11.2518 11.2508C11.6271 10.8758 12.1361 10.6652 12.6667 10.6653C13.1973 10.6655 13.7061 10.8765 14.0812 11.2518C14.4562 11.6271 14.6668 12.1361 14.6667 12.6667ZM14.6667 19.3333C14.6665 19.8639 14.4555 20.3728 14.0802 20.7478C13.7049 21.1229 13.1959 21.3335 12.6653 21.3333C12.1347 21.3332 11.6259 21.1222 11.2508 20.7469C10.8758 20.3716 10.6652 19.8626 10.6653 19.332C10.6654 19.0693 10.7173 18.8091 10.8179 18.5664C10.9185 18.3237 11.0659 18.1032 11.2518 17.9175C11.4376 17.7318 11.6582 17.5845 11.901 17.484C12.1438 17.3836 12.4039 17.3319 12.6667 17.332C12.9294 17.3321 13.1895 17.3839 13.4322 17.4845C13.6749 17.5852 13.8954 17.7326 14.0812 17.9185C14.2669 18.1043 14.4142 18.3249 14.5146 18.5677C14.6151 18.8104 14.6668 19.0706 14.6667 19.3333Z" fill="url(#paint0_linear_1_2894)"/>
</g>
<defs>
<linearGradient id="paint0_linear_1_2894" x1="16.0007" y1="0" x2="16.0007" y2="32" gradientUnits="userSpaceOnUse">
<stop stop-color="#72FCC3"/>
<stop offset="1" stop-color="#62D982"/>
</linearGradient>
<clipPath id="clip0_1_2894">
<rect width="32" height="32" fill="white"/>
</clipPath>
</defs>
</svg>
