<svg width="32" height="32" viewBox="0 0 32 32" fill="none" xmlns="http://www.w3.org/2000/svg">
<path d="M7.89067 15.9813C7.54204 15.9229 7.2309 15.7284 7.02562 15.4406C6.82035 15.1528 6.73776 14.7953 6.796 14.4467C7.15662 12.2682 8.28067 10.2892 9.96702 8.86377C11.6534 7.43833 13.7919 6.6595 16 6.66667C16.5227 6.66667 17.044 6.71067 17.5547 6.796C17.9033 6.85474 18.2144 7.04956 18.4194 7.3376C18.6244 7.62565 18.7067 7.98334 18.648 8.332C18.6197 8.50503 18.5575 8.67073 18.4648 8.81955C18.3721 8.96836 18.2508 9.09733 18.108 9.199C17.9652 9.30066 17.8036 9.37301 17.6327 9.41186C17.4617 9.45071 17.2847 9.45529 17.112 9.42533C16.7445 9.36383 16.3726 9.33305 16 9.33333C14.4233 9.32813 12.8962 9.88391 11.6917 10.9013C10.4872 11.9187 9.68388 13.3313 9.42533 14.8867C9.316 15.5387 8.52933 15.9813 7.89067 15.9813ZM11.4213 25.912L13.088 22.952C13.2317 22.7022 13.2704 22.4055 13.1953 22.1272C13.1203 21.8489 12.9378 21.6117 12.688 21.468C12.4382 21.3243 12.1415 21.2856 11.8632 21.3607C11.5849 21.4357 11.3477 21.6182 11.204 21.868L9.272 25.1547H8.8V22.3987C8.8 22.1158 8.68762 21.8445 8.48758 21.6444C8.28754 21.4444 8.01623 21.332 7.73333 21.332C7.45044 21.332 7.17912 21.4444 6.97909 21.6444C6.77905 21.8445 6.66667 22.1158 6.66667 22.3987V30.932C6.66667 31.2149 6.77905 31.4862 6.97909 31.6862C7.17912 31.8863 7.45044 31.9987 7.73333 31.9987C8.01623 31.9987 8.28754 31.8863 8.48758 31.6862C8.68762 31.4862 8.8 31.2149 8.8 30.932V27.288H9.616L11.4533 31.364C11.5108 31.4934 11.5931 31.6102 11.6957 31.7078C11.7983 31.8054 11.9191 31.8818 12.0512 31.9326C12.1833 31.9835 12.3241 32.0079 12.4656 32.0044C12.6072 32.0008 12.7466 31.9694 12.876 31.912C13.0054 31.8546 13.1222 31.7722 13.2198 31.6696C13.3173 31.5671 13.3938 31.4463 13.4446 31.3142C13.4955 31.1821 13.5199 31.0412 13.5164 30.8997C13.5128 30.7582 13.4814 30.6187 13.424 30.4893L11.4213 25.912ZM7.89067 15.9813C7.81733 15.9813 7.96533 15.9933 7.89067 15.9813V15.9813ZM16 0C7.17733 0 0 7.17733 0 16C0 18.328 0.489333 20.5747 1.456 22.676C1.52591 22.84 1.62801 22.9883 1.75625 23.1122C1.88449 23.2361 2.03627 23.333 2.20262 23.3971C2.36896 23.4613 2.54648 23.4915 2.72469 23.4858C2.90289 23.4802 3.07816 23.4389 3.24011 23.3643C3.40207 23.2898 3.54743 23.1835 3.66759 23.0518C3.78775 22.9201 3.88027 22.7656 3.93969 22.5975C3.9991 22.4294 4.02419 22.2511 4.01348 22.0731C4.00277 21.8951 3.95648 21.7211 3.87733 21.5613C3.07494 19.8174 2.66182 17.9197 2.66667 16C2.66667 8.648 8.648 2.66667 16 2.66667C23.352 2.66667 29.3333 8.648 29.3333 16C29.3382 17.8798 28.9418 19.739 28.1707 21.4533C28.0309 21.775 28.0234 22.1388 28.15 22.4659C28.2765 22.793 28.5269 23.0571 28.8468 23.2009C29.1667 23.3447 29.5304 23.3567 29.859 23.2342C30.1877 23.1118 30.4549 22.8647 30.6027 22.5467C31.5283 20.4885 32.0047 18.2567 32 16C32 7.17733 24.8227 0 16 0ZM18.6667 16C18.6667 15.748 18.62 15.5093 18.556 15.2787L23.604 10.28C23.7348 10.1584 23.8399 10.0118 23.913 9.8488C23.9861 9.68582 24.0256 9.50982 24.0294 9.33125C24.0331 9.15268 24.001 8.97518 23.9348 8.80928C23.8686 8.64338 23.7698 8.49247 23.6441 8.36551C23.5185 8.23854 23.3687 8.13811 23.2035 8.07018C23.0383 8.00224 22.8611 7.96819 22.6825 7.97004C22.5039 7.97189 22.3275 8.0096 22.1638 8.08094C22 8.15228 21.8523 8.25579 21.7293 8.38533L16.644 13.42C16.4338 13.3645 16.2174 13.3354 16 13.3333C15.4726 13.3333 14.957 13.4897 14.5185 13.7827C14.0799 14.0758 13.7382 14.4922 13.5363 14.9795C13.3345 15.4668 13.2817 16.003 13.3846 16.5202C13.4875 17.0375 13.7414 17.5127 14.1144 17.8856C14.4873 18.2586 14.9625 18.5125 15.4798 18.6154C15.997 18.7183 16.5332 18.6655 17.0205 18.4637C17.5078 18.2618 17.9242 17.9201 18.2173 17.4815C18.5103 17.043 18.6667 16.5274 18.6667 16ZM23.7333 21.3333C23.4504 21.3333 23.1791 21.4457 22.9791 21.6458C22.779 21.8458 22.6667 22.1171 22.6667 22.4V30.9333C22.6667 31.2162 22.779 31.4875 22.9791 31.6876C23.1791 31.8876 23.4504 32 23.7333 32C24.0162 32 24.2875 31.8876 24.4876 31.6876C24.6876 31.4875 24.8 31.2162 24.8 30.9333V22.4C24.8 22.1171 24.6876 21.8458 24.4876 21.6458C24.2875 21.4457 24.0162 21.3333 23.7333 21.3333ZM21.4653 24.6667C21.4653 25.5507 21.1141 26.3986 20.489 27.0237C19.8639 27.6488 19.0161 28 18.132 28H17.4653V30.9333C17.4653 31.2162 17.353 31.4875 17.1529 31.6876C16.9529 31.8876 16.6816 32 16.3987 32C16.1158 32 15.8445 31.8876 15.6444 31.6876C15.4444 31.4875 15.332 31.2162 15.332 30.9333V22.4C15.332 22.1171 15.4444 21.8458 15.6444 21.6458C15.8445 21.4457 16.1158 21.3333 16.3987 21.3333H18.132C18.5697 21.3333 19.0032 21.4196 19.4076 21.5871C19.812 21.7546 20.1795 22.0001 20.489 22.3096C20.7986 22.6192 21.0441 22.9866 21.2116 23.3911C21.3791 23.7955 21.4653 24.2289 21.4653 24.6667ZM19.436 24.6667C19.436 23.932 18.8373 23.3333 18.1027 23.3333H17.3627V26H18.1027C18.8373 26 19.436 25.4013 19.436 24.6667Z" fill="url(#paint0_linear_1_2922)"/>
<defs>
<linearGradient id="paint0_linear_1_2922" x1="16" y1="0" x2="16" y2="32.0047" gradientUnits="userSpaceOnUse">
<stop stop-color="#72FCC3"/>
<stop offset="1" stop-color="#62D982"/>
</linearGradient>
</defs>
</svg>
