<svg width="32" height="32" viewBox="0 0 32 32" fill="none" xmlns="http://www.w3.org/2000/svg">
<g clip-path="url(#clip0_1_2912)">
<path d="M24.0003 9.33333H27.555C24.9643 4.81467 19.959 2.16667 14.5203 2.74533C8.42696 3.39467 3.46429 8.32933 2.75896 14.416C1.82563 22.472 8.12696 29.3333 16.0003 29.3333C23.3523 29.3333 29.3336 23.352 29.3336 16C29.3336 15.6464 29.4741 15.3072 29.7241 15.0572C29.9742 14.8071 30.3133 14.6667 30.667 14.6667C31.0206 14.6667 31.3597 14.8071 31.6098 15.0572C31.8598 15.3072 32.0003 15.6464 32.0003 16C32.0003 25.032 24.479 32.34 15.3696 31.988C7.14029 31.6693 0.33096 24.8613 0.0122932 16.6333C-0.34104 7.52267 6.96829 0 16.0003 0C21.4723 0 26.407 2.712 29.327 7.12667L29.3336 4C29.3336 3.64638 29.4741 3.30724 29.7241 3.05719C29.9742 2.80714 30.3133 2.66667 30.667 2.66667C31.0206 2.66667 31.3597 2.80714 31.6098 3.05719C31.8598 3.30724 32.0003 3.64638 32.0003 4V9.32133C31.9999 10.0317 31.7176 10.7128 31.2153 11.215C30.7131 11.7173 30.0319 11.9996 29.3216 12H24.0003C23.6467 12 23.3075 11.8595 23.0575 11.6095C22.8074 11.3594 22.667 11.0203 22.667 10.6667C22.667 10.313 22.8074 9.97391 23.0575 9.72386C23.3075 9.47381 23.6467 9.33333 24.0003 9.33333ZM16.0003 25.3333C16.3539 25.3333 16.6931 25.1929 16.9431 24.9428C17.1932 24.6928 17.3336 24.3536 17.3336 24V22.6667C19.539 22.6667 21.3336 20.872 21.3336 18.6667C21.3336 16.8547 20.035 15.32 18.247 15.0227L14.1923 14.348C13.952 14.3084 13.7336 14.1846 13.5763 13.9987C13.4189 13.8127 13.3329 13.5769 13.3336 13.3333C13.3336 12.5973 13.9323 12 14.667 12H17.691C18.1656 12 18.6083 12.2547 18.847 12.668C18.9344 12.8198 19.0509 12.9528 19.1898 13.0595C19.3288 13.1661 19.4875 13.2442 19.6567 13.2893C19.826 13.3344 20.0025 13.3456 20.1761 13.3223C20.3497 13.2989 20.517 13.2415 20.6683 13.1533C20.82 13.0658 20.9529 12.9492 21.0594 12.8102C21.1659 12.6713 21.2439 12.5126 21.289 12.3434C21.3341 12.1742 21.3454 11.9978 21.3221 11.8242C21.2989 11.6507 21.2416 11.4834 21.1536 11.332C20.8016 10.7249 20.2964 10.2208 19.6885 9.8701C19.0807 9.51938 18.3914 9.33429 17.6896 9.33333H17.3323V8C17.3323 7.64638 17.1918 7.30724 16.9418 7.05719C16.6917 6.80714 16.3526 6.66667 15.999 6.66667C15.6453 6.66667 15.3062 6.80714 15.0562 7.05719C14.8061 7.30724 14.6656 7.64638 14.6656 8V9.33333C12.4603 9.33333 10.6656 11.128 10.6656 13.3333C10.6656 15.1453 11.9643 16.68 13.7523 16.9773L17.8056 17.652C18.0462 17.6913 18.2649 17.815 18.4225 18.001C18.5801 18.1869 18.6663 18.4229 18.6656 18.6667C18.6656 19.0203 18.5252 19.3594 18.2751 19.6095C18.0251 19.8595 17.6859 20 17.3323 20H14.3083C13.8336 20 13.391 19.7453 13.1523 19.332C13.0649 19.1802 12.9484 19.0472 12.8094 18.9405C12.6704 18.8339 12.5118 18.7558 12.3425 18.7107C12.1733 18.6656 11.9968 18.6544 11.8232 18.6777C11.6496 18.7011 11.4823 18.7585 11.331 18.8467C11.1792 18.9341 11.0462 19.0506 10.9395 19.1895C10.8328 19.3285 10.7547 19.4871 10.7095 19.6563C10.6642 19.8255 10.6529 20.002 10.676 20.1756C10.6992 20.3492 10.7563 20.5165 10.8443 20.668C11.1966 21.2749 11.7018 21.7788 12.3096 22.1295C12.9174 22.4802 13.6066 22.6654 14.3083 22.6667H14.6656V24C14.6656 24.3536 14.8061 24.6928 15.0562 24.9428C15.3062 25.1929 15.6453 25.3333 15.999 25.3333H16.0003Z" fill="url(#paint0_linear_1_2912)"/>
</g>
<defs>
<linearGradient id="paint0_linear_1_2912" x1="16.0001" y1="0" x2="16.0001" y2="32.0002" gradientUnits="userSpaceOnUse">
<stop stop-color="#72FCC3"/>
<stop offset="1" stop-color="#62D982"/>
</linearGradient>
<clipPath id="clip0_1_2912">
<rect width="32" height="32" fill="white"/>
</clipPath>
</defs>
</svg>
