<svg width="32" height="32" viewBox="0 0 32 32" fill="none" xmlns="http://www.w3.org/2000/svg">
<path d="M16 0C12.8355 0 9.74207 0.938384 7.11088 2.69649C4.4797 4.45459 2.42894 6.95345 1.21793 9.87707C0.00693258 12.8007 -0.309921 16.0177 0.307443 19.1214C0.924806 22.2251 2.44866 25.0761 4.6863 27.3137C6.92394 29.5514 9.77487 31.0752 12.8786 31.6926C15.9823 32.3099 19.1993 31.9931 22.1229 30.7821C25.0466 29.5711 27.5454 27.5203 29.3035 24.8891C31.0616 22.2579 32 19.1645 32 16C31.9954 11.7579 30.3082 7.69095 27.3087 4.69136C24.3091 1.69177 20.2421 0.00458811 16 0ZM16 29.3333C13.3629 29.3333 10.7851 28.5513 8.5924 27.0863C6.39975 25.6212 4.69078 23.5388 3.68161 21.1024C2.67245 18.6661 2.4084 15.9852 2.92287 13.3988C3.43734 10.8124 4.70722 8.43661 6.57192 6.57191C8.43662 4.70721 10.8124 3.43733 13.3988 2.92286C15.9852 2.40839 18.6661 2.67244 21.1025 3.68161C23.5388 4.69078 25.6212 6.39974 27.0863 8.5924C28.5514 10.7851 29.3333 13.3629 29.3333 16C29.3295 19.535 27.9235 22.9242 25.4238 25.4238C22.9242 27.9235 19.535 29.3295 16 29.3333Z" fill="url(#paint0_linear_1_2865)"/>
<path d="M16.956 6.75069C16.1871 6.61059 15.3968 6.6412 14.6411 6.84034C13.8853 7.03948 13.1826 7.40229 12.5825 7.90309C11.9825 8.40389 11.4999 9.03045 11.1688 9.73842C10.8378 10.4464 10.6663 11.2185 10.6667 12C10.6667 12.3536 10.8072 12.6928 11.0572 12.9428C11.3073 13.1929 11.6464 13.3334 12 13.3334C12.3536 13.3334 12.6928 13.1929 12.9428 12.9428C13.1929 12.6928 13.3334 12.3536 13.3334 12C13.333 11.6077 13.4192 11.2202 13.5859 10.865C13.7525 10.5099 13.9955 10.1959 14.2974 9.94539C14.5993 9.69491 14.9528 9.51414 15.3326 9.41595C15.7124 9.31776 16.1092 9.30458 16.4947 9.37735C17.0214 9.4796 17.5057 9.73653 17.8857 10.1153C18.2657 10.4941 18.5241 10.9776 18.628 11.504C18.733 12.0566 18.6605 12.6281 18.421 13.137C18.1816 13.6459 17.7873 14.066 17.2947 14.3374C16.4789 14.81 15.8048 15.4927 15.3426 16.3144C14.8804 17.1361 14.647 18.0668 14.6667 19.0094V20C14.6667 20.3536 14.8072 20.6928 15.0572 20.9428C15.3073 21.1929 15.6464 21.3334 16 21.3334C16.3536 21.3334 16.6928 21.1929 16.9428 20.9428C17.1929 20.6928 17.3334 20.3536 17.3334 20V19.0094C17.3166 18.5454 17.4224 18.0852 17.6401 17.6751C17.8578 17.265 18.1797 16.9195 18.5734 16.6734C19.5394 16.1428 20.3173 15.326 20.8001 14.3352C21.283 13.3445 21.447 12.2285 21.2697 11.1407C21.0924 10.0529 20.5825 9.04681 19.81 8.26068C19.0376 7.47455 18.0405 6.94704 16.956 6.75069Z" fill="url(#paint1_linear_1_2865)"/>
<path d="M17.3332 24.0013C17.3332 23.2649 16.7362 22.668 15.9998 22.668C15.2635 22.668 14.6665 23.2649 14.6665 24.0013C14.6665 24.7377 15.2635 25.3346 15.9998 25.3346C16.7362 25.3346 17.3332 24.7377 17.3332 24.0013Z" fill="url(#paint2_linear_1_2865)"/>
<defs>
<linearGradient id="paint0_linear_1_2865" x1="16" y1="0" x2="16" y2="32" gradientUnits="userSpaceOnUse">
<stop stop-color="#72FCC3"/>
<stop offset="1" stop-color="#62D982"/>
</linearGradient>
<linearGradient id="paint1_linear_1_2865" x1="16.0029" y1="6.66431" x2="16.0029" y2="21.3334" gradientUnits="userSpaceOnUse">
<stop stop-color="#72FCC3"/>
<stop offset="1" stop-color="#62D982"/>
</linearGradient>
<linearGradient id="paint2_linear_1_2865" x1="15.9998" y1="22.668" x2="15.9998" y2="25.3346" gradientUnits="userSpaceOnUse">
<stop stop-color="#72FCC3"/>
<stop offset="1" stop-color="#62D982"/>
</linearGradient>
</defs>
</svg>
