<svg width="32" height="32" viewBox="0 0 32 32" fill="none" xmlns="http://www.w3.org/2000/svg">
<g clip-path="url(#clip0_1_2855)">
<path d="M8 14.6667C8.35362 14.6667 8.69276 14.8071 8.94281 15.0572C9.19286 15.3072 9.33333 15.6464 9.33333 16V20C9.33333 20.3536 9.19286 20.6928 8.94281 20.9428C8.69276 21.1929 8.35362 21.3333 8 21.3333C7.64638 21.3333 7.30724 21.1929 7.05719 20.9428C6.80714 20.6928 6.66667 20.3536 6.66667 20V16C6.66667 15.6464 6.80714 15.3072 7.05719 15.0572C7.30724 14.8071 7.64638 14.6667 8 14.6667ZM12 10.6667V20C12 20.3536 12.1405 20.6928 12.3905 20.9428C12.6406 21.1929 12.9797 21.3333 13.3333 21.3333C13.687 21.3333 14.0261 21.1929 14.2761 20.9428C14.5262 20.6928 14.6667 20.3536 14.6667 20V10.6667C14.6667 10.313 14.5262 9.97391 14.2761 9.72386C14.0261 9.47381 13.687 9.33333 13.3333 9.33333C12.9797 9.33333 12.6406 9.47381 12.3905 9.72386C12.1405 9.97391 12 10.313 12 10.6667ZM17.3333 14.6667V20C17.3333 20.3536 17.4738 20.6928 17.7239 20.9428C17.9739 21.1929 18.313 21.3333 18.6667 21.3333C19.0203 21.3333 19.3594 21.1929 19.6095 20.9428C19.8595 20.6928 20 20.3536 20 20V14.6667C20 14.313 19.8595 13.9739 19.6095 13.7239C19.3594 13.4738 19.0203 13.3333 18.6667 13.3333C18.313 13.3333 17.9739 13.4738 17.7239 13.7239C17.4738 13.9739 17.3333 14.313 17.3333 14.6667ZM24.42 8.97733L28.4733 9.652C28.7139 9.6913 28.9326 9.81502 29.0902 10.001C29.2478 10.1869 29.334 10.4229 29.3333 10.6667C29.3333 11.0203 29.1929 11.3594 28.9428 11.6095C28.6928 11.8595 28.3536 12 28 12H24.976C24.5013 12 24.0587 11.7453 23.82 11.332C23.7327 11.1801 23.6163 11.0469 23.4773 10.9402C23.3384 10.8335 23.1797 10.7553 23.0104 10.7102C22.8411 10.6651 22.6645 10.6539 22.4909 10.6773C22.3172 10.7008 22.15 10.7583 21.9987 10.8467C21.847 10.9342 21.7141 11.0508 21.6076 11.1898C21.5011 11.3287 21.423 11.4874 21.3779 11.6566C21.3328 11.8258 21.3216 12.0022 21.3448 12.1758C21.3681 12.3493 21.4253 12.5166 21.5133 12.668C21.8654 13.2751 22.3706 13.7792 22.9784 14.1299C23.5863 14.4806 24.2756 14.6657 24.9773 14.6667H25.3347C25.3347 15.0203 25.4751 15.3594 25.7252 15.6095C25.9752 15.8595 26.3144 16 26.668 16C27.0216 16 27.3608 15.8595 27.6108 15.6095C27.8609 15.3594 28.0013 15.0203 28.0013 14.6667C30.2067 14.6667 32.0013 12.872 32.0013 10.6667C32.0013 8.85467 30.7027 7.32 28.9147 7.02267L24.8613 6.348C24.6208 6.3087 24.4021 6.18498 24.2445 5.99903C24.0869 5.81309 24.0007 5.57708 24.0013 5.33333C24.0013 4.97971 24.1418 4.64057 24.3919 4.39052C24.6419 4.14048 24.981 4 25.3347 4H28.3587C28.8333 4 29.276 4.25467 29.5147 4.668C29.6021 4.8198 29.7186 4.95283 29.8576 5.05945C29.9965 5.16607 30.1552 5.24418 30.3244 5.28928C30.4937 5.33438 30.6702 5.34559 30.8438 5.32226C31.0174 5.29893 31.1847 5.24152 31.336 5.15333C31.4877 5.06582 31.6206 4.94922 31.7271 4.81024C31.8336 4.67126 31.9117 4.51262 31.9567 4.34341C32.0018 4.17421 32.0131 3.99777 31.9898 3.82421C31.9666 3.65065 31.9093 3.48339 31.8213 3.332C31.4693 2.72491 30.9641 2.22083 30.3562 1.8701C29.7484 1.51938 29.0591 1.33429 28.3573 1.33333H28C28 0.979711 27.8595 0.640573 27.6095 0.390524C27.3594 0.140476 27.0203 0 26.6667 0C26.313 0 25.9739 0.140476 25.7239 0.390524C25.4738 0.640573 25.3333 0.979711 25.3333 1.33333C23.128 1.33333 21.3333 3.128 21.3333 5.33333C21.3333 7.14533 22.632 8.68 24.42 8.97733ZM30.6667 17.3333C30.313 17.3333 29.9739 17.4738 29.7239 17.7239C29.4738 17.9739 29.3333 18.313 29.3333 18.6667V20C29.3333 22.2053 27.5387 24 25.3333 24H6.66667C4.46133 24 2.66667 22.2053 2.66667 20V9.33333C2.66667 7.128 4.46133 5.33333 6.66667 5.33333H17.3333C17.687 5.33333 18.0261 5.19286 18.2761 4.94281C18.5262 4.69276 18.6667 4.35362 18.6667 4C18.6667 3.64638 18.5262 3.30724 18.2761 3.05719C18.0261 2.80714 17.687 2.66667 17.3333 2.66667H6.66667C2.99067 2.66667 0 5.65733 0 9.33333V20C0 23.676 2.99067 26.6667 6.66667 26.6667H14.6667V29.3333H9.33333C8.97971 29.3333 8.64057 29.4738 8.39053 29.7239C8.14048 29.9739 8 30.313 8 30.6667C8 31.0203 8.14048 31.3594 8.39053 31.6095C8.64057 31.8595 8.97971 32 9.33333 32H22.6667C23.0203 32 23.3594 31.8595 23.6095 31.6095C23.8595 31.3594 24 31.0203 24 30.6667C24 30.313 23.8595 29.9739 23.6095 29.7239C23.3594 29.4738 23.0203 29.3333 22.6667 29.3333H17.3333V26.6667H25.3333C29.0093 26.6667 32 23.676 32 20V18.6667C32 18.313 31.8595 17.9739 31.6095 17.7239C31.3594 17.4738 31.0203 17.3333 30.6667 17.3333Z" fill="url(#paint0_linear_1_2855)"/>
</g>
<defs>
<linearGradient id="paint0_linear_1_2855" x1="16.0008" y1="0" x2="16.0008" y2="32" gradientUnits="userSpaceOnUse">
<stop stop-color="#72FCC3"/>
<stop offset="1" stop-color="#62D982"/>
</linearGradient>
<clipPath id="clip0_1_2855">
<rect width="32" height="32" fill="white"/>
</clipPath>
</defs>
</svg>
