<svg width="32" height="32" viewBox="0 0 32 32" fill="none" xmlns="http://www.w3.org/2000/svg">
<g clip-path="url(#clip0_1_2875)">
<path d="M23.9721 17.3658C23.2596 16.6582 22.3389 16.1976 21.3454 16.052C20.3518 15.9063 19.3377 16.0831 18.4521 16.5565L12.0094 10.1138V5.99918C12.0083 5.33393 11.8327 4.6806 11.5 4.10453C11.1672 3.52847 10.6891 3.04984 10.1134 2.71651L6.13872 0.424512C5.53317 0.0761202 4.82975 -0.0631673 4.13713 0.0281696C3.44451 0.119507 2.80125 0.436385 2.30672 0.929846L0.940053 2.29918C0.446613 2.79316 0.129706 3.43598 0.0383591 4.1282C-0.052988 4.82041 0.0863156 5.52344 0.434719 6.12851L2.72672 10.1032C3.05988 10.6791 3.53843 11.1575 4.11451 11.4905C4.69059 11.8235 5.344 11.9993 6.00939 12.0005H10.1241L16.5587 18.4352C16.1845 19.1195 15.9891 19.8872 15.9907 20.6672C15.9907 21.9152 16.4774 23.0858 17.3614 23.9685L24.0467 30.6352C24.9255 31.509 26.1141 31.9998 27.3534 32.0005C28.6667 32.0005 30.1374 31.3058 30.9774 30.2818C32.4787 28.4525 32.2787 25.6485 30.5227 23.8992L23.9721 17.3658ZM5.03605 8.77251L2.74405 4.79651C2.68829 4.69979 2.66603 4.58736 2.68074 4.47669C2.69545 4.36602 2.7463 4.26331 2.82539 4.18451L4.19205 2.81651C4.2713 2.73771 4.37421 2.68708 4.485 2.67239C4.59579 2.6577 4.70834 2.67975 4.80539 2.73518L8.77872 5.02851C9.12539 5.22851 9.34139 5.60185 9.34139 6.00051V9.33385H6.00805C5.81105 9.33366 5.61756 9.28171 5.44697 9.18319C5.27637 9.08467 5.13467 8.94305 5.03605 8.77251ZM28.9161 28.5898C28.7384 28.8096 28.5162 28.9893 28.2641 29.1171C28.012 29.2449 27.7357 29.3178 27.4534 29.3312C27.173 29.344 26.8931 29.2988 26.631 29.1983C26.369 29.0978 26.1306 28.9442 25.9307 28.7472L19.2454 22.0805C18.8667 21.7032 18.6587 21.2018 18.6587 20.6672C18.6587 20.1325 18.8681 19.6325 19.2454 19.2538C19.4321 19.0671 19.6538 18.9189 19.8978 18.8178C20.1418 18.7167 20.4033 18.6647 20.6674 18.6647C20.9315 18.6647 21.193 18.7167 21.437 18.8178C21.681 18.9189 21.9027 19.0671 22.0894 19.2538L28.6414 25.7858C29.4361 26.5792 29.5561 27.8098 28.9161 28.5898ZM13.9161 22.7992C14.1657 23.0496 14.3056 23.3888 14.3051 23.7424C14.3046 24.0959 14.1637 24.4348 13.9134 24.6845L7.94405 30.6338C7.06556 31.508 5.87672 31.9989 4.63739 31.9992C3.46272 31.9992 1.85339 31.3045 1.01339 30.2792C-0.486614 28.4512 -0.287947 25.6472 1.46939 23.8978L9.02672 16.3578C9.15069 16.2342 9.29779 16.1362 9.45963 16.0695C9.62147 16.0027 9.79487 15.9685 9.96994 15.9687C10.145 15.969 10.3183 16.0037 10.48 16.0709C10.6416 16.1381 10.7884 16.2365 10.9121 16.3605C11.0357 16.4845 11.1337 16.6316 11.2004 16.7934C11.2672 16.9553 11.3014 17.1287 11.3012 17.3037C11.3009 17.4788 11.2662 17.6521 11.199 17.8138C11.1318 17.9754 11.0334 18.1222 10.9094 18.2458L3.35072 25.7858C2.55605 26.5792 2.43339 27.8098 3.07339 28.5885C3.44272 29.0392 3.96272 29.3018 4.53739 29.3312C5.10539 29.3565 5.65872 29.1458 6.06005 28.7472L12.0307 22.7978C12.1547 22.6741 12.3019 22.5759 12.4639 22.509C12.6258 22.4422 12.7994 22.4079 12.9746 22.4081C13.1498 22.4084 13.3233 22.4432 13.485 22.5105C13.6468 22.5778 13.7937 22.6764 13.9174 22.8005L13.9161 22.7992ZM13.1907 6.17918C13.8006 4.63705 14.7924 3.27525 16.0731 2.22173C17.3538 1.16821 18.8813 0.457551 20.5121 0.156512C21.6488 -0.0494478 22.813 -0.0521564 23.9507 0.148512C24.3822 0.22243 24.785 0.413863 25.1148 0.701776C25.4445 0.98969 25.6886 1.36294 25.8201 1.78051C26.1254 2.75251 25.8201 3.82185 25.0041 4.64051L21.8907 7.62985C21.2441 8.27651 21.1387 9.31118 21.6707 9.96185C21.8175 10.1441 22.0011 10.2934 22.2094 10.4C22.4178 10.5066 22.6462 10.5681 22.8799 10.5806C23.1136 10.593 23.3473 10.5561 23.5658 10.4723C23.7843 10.3884 23.9827 10.2595 24.1481 10.0938L27.6334 6.73251C27.9584 6.41026 28.3658 6.18378 28.8111 6.07794C29.2564 5.97209 29.7222 5.99098 30.1574 6.13251C30.589 6.26666 30.9754 6.5168 31.2745 6.85563C31.5736 7.19446 31.7738 7.60895 31.8534 8.05385C32.0534 9.18451 32.0507 10.3432 31.8454 11.4952C31.4562 13.6171 30.375 15.5502 28.7707 16.9925C28.6409 17.11 28.4891 17.2008 28.3241 17.2595C28.1591 17.3182 27.9841 17.3438 27.8092 17.3347C27.6343 17.3257 27.4629 17.2822 27.3048 17.2068C27.1467 17.1314 27.0051 17.0255 26.8881 16.8952C26.7707 16.7651 26.6801 16.6132 26.6214 16.4481C26.5628 16.283 26.5372 16.108 26.5463 15.933C26.5553 15.758 26.5987 15.5866 26.6741 15.4284C26.7494 15.2702 26.8552 15.1284 26.9854 15.0112C28.1496 13.9662 28.9353 12.5654 29.2201 11.0272C29.3501 10.309 29.3695 9.57519 29.2774 8.85118L26.0174 11.9965C25.5907 12.4211 25.0798 12.7515 24.5177 12.9664C23.9555 13.1814 23.3544 13.2761 22.7534 13.2445C22.1468 13.213 21.5535 13.055 21.0116 12.7806C20.4697 12.5062 19.9911 12.1215 19.6067 11.6512C18.2174 9.95251 18.4014 7.34985 20.0254 5.72718L23.1374 2.73785L23.1494 2.72585C22.4284 2.63486 21.6977 2.65464 20.9827 2.78451C19.7996 3.00328 18.6916 3.51932 17.7628 4.28413C16.8341 5.04893 16.115 6.03737 15.6734 7.15651C15.6124 7.32352 15.5186 7.47664 15.3975 7.60686C15.2765 7.73708 15.1306 7.84178 14.9685 7.91479C14.8064 7.9878 14.6313 8.02765 14.4536 8.03199C14.2758 8.03633 14.099 8.00508 13.9335 7.94008C13.768 7.87508 13.6172 7.77763 13.4899 7.65348C13.3627 7.52932 13.2615 7.38097 13.1924 7.21714C13.1233 7.05332 13.0877 6.87733 13.0877 6.69953C13.0876 6.52174 13.1231 6.34572 13.1921 6.18185L13.1907 6.17918Z" fill="url(#paint0_linear_1_2875)"/>
</g>
<defs>
<linearGradient id="paint0_linear_1_2875" x1="16.0045" y1="0" x2="16.0045" y2="32.0005" gradientUnits="userSpaceOnUse">
<stop stop-color="#72FCC3"/>
<stop offset="1" stop-color="#62D982"/>
</linearGradient>
<clipPath id="clip0_1_2875">
<rect width="32" height="32" fill="white"/>
</clipPath>
</defs>
</svg>
